<svg xmlns="http://www.w3.org/2000/svg" viewBox="0 0 800 500">
  <rect width="800" height="500" fill="#0b0f14"/>

  <!-- Title -->
  <text x="400" y="30" fill="#4a9eff" font-family="system-ui" font-size="16" text-anchor="middle" font-weight="600">
    Futamura-Adelic Proof Map (2D)
  </text>

  <!-- Grid lines -->
  <g stroke="#1c2a3a" stroke-width="0.5" opacity="0.3">
    <line x1="100" y1="50" x2="100" y2="450"/>
    <line x1="250" y1="50" x2="250" y2="450"/>
    <line x1="400" y1="50" x2="400" y2="450"/>
    <line x1="550" y1="50" x2="550" y2="450"/>
    <line x1="700" y1="50" x2="700" y2="450"/>
    <line x1="100" y1="125" x2="700" y2="125"/>
    <line x1="100" y1="250" x2="700" y2="250"/>
    <line x1="100" y1="375" x2="700" y2="375"/>
  </g>

  <!-- Edges -->
  <g stroke="#64788c" stroke-width="1" opacity="0.2">
    <line x1="359" y1="120" x2="368" y2="158"/>
    <line x1="368" y1="158" x2="187" y2="370"/>
    <line x1="599" y1="385" x2="477" y2="400"/>
    <line x1="477" y1="400" x2="488" y2="245"/>
    <line x1="155" y1="207" x2="414" y2="371"/>
    <line x1="414" y1="371" x2="212" y2="171"/>
    <line x1="526" y1="407" x2="501" y2="233"/>
    <line x1="501" y1="233" x2="442" y2="80"/>
    <line x1="539" y1="345" x2="496" y2="134"/>
  </g>

  <!-- Nodes - Tropical (yellow) -->
  <g fill="#fbbf24">
    <circle cx="542" cy="407" r="5"/>
    <circle cx="427" cy="236" r="6"/>
    <circle cx="513" cy="253" r="5"/>
    <circle cx="547" cy="422" r="5"/>
    <circle cx="472" cy="59" r="5"/>
    <circle cx="565" cy="361" r="5"/>
    <circle cx="461" cy="280" r="6"/>
    <circle cx="191" cy="284" r="6"/>
  </g>

  <!-- Nodes - Differential (cyan) -->
  <g fill="#22d3d3">
    <circle cx="574" cy="189" r="5"/>
    <circle cx="127" cy="322" r="5"/>
    <circle cx="359" cy="430" r="5"/>
    <circle cx="500" cy="397" r="5"/>
    <circle cx="106" cy="215" r="6"/>
    <circle cx="193" cy="300" r="6"/>
    <circle cx="168" cy="401" r="6"/>
    <circle cx="506" cy="127" r="6"/>
  </g>

  <!-- Nodes - ActiveInference (purple) -->
  <g fill="#c77dff">
    <circle cx="598" cy="385" r="5"/>
    <circle cx="477" cy="400" r="5"/>
    <circle cx="488" cy="245" r="6"/>
    <circle cx="368" cy="173" r="6"/>
  </g>

  <!-- Nodes - Renormalization (green) -->
  <g fill="#4ade80">
    <circle cx="155" cy="207" r="5"/>
    <circle cx="414" cy="371" r="5"/>
    <circle cx="212" cy="167" r="5"/>
    <circle cx="175" cy="219" r="5"/>
    <circle cx="271" cy="290" r="5"/>
    <circle cx="367" cy="77" r="6"/>
  </g>

  <!-- Nodes - ProgramCalculus (orange) -->
  <g fill="#fb923c">
    <circle cx="592" cy="387" r="5"/>
    <circle cx="573" cy="213" r="5"/>
    <circle cx="398" cy="291" r="6"/>
    <circle cx="178" cy="144" r="6"/>
    <circle cx="209" cy="350" r="5"/>
    <circle cx="464" cy="179" r="5"/>
    <circle cx="113" cy="280" r="5"/>
    <circle cx="627" cy="397" r="6"/>
    <circle cx="274" cy="316" r="5"/>
    <circle cx="627" cy="113" r="5"/>
  </g>

  <!-- Nodes - Topos (pink) -->
  <g fill="#f472b6">
    <circle cx="514" cy="140" r="5"/>
    <circle cx="167" cy="357" r="5"/>
    <circle cx="414" cy="212" r="5"/>
    <circle cx="501" cy="445" r="6"/>
    <circle cx="466" cy="408" r="6"/>
    <circle cx="548" cy="209" r="5"/>
    <circle cx="124" cy="378" r="6"/>
  </g>

  <!-- Nodes - Embeddings (blue) -->
  <g fill="#5e9cff">
    <circle cx="359" cy="120" r="5"/>
    <circle cx="368" cy="158" r="5"/>
    <circle cx="187" cy="370" r="5"/>
    <circle cx="553" cy="316" r="5"/>
  </g>

  <!-- Nodes - Combinators (gray) -->
  <g fill="#a3a3a3">
    <circle cx="445" cy="78" r="5"/>
    <circle cx="336" cy="171" r="5"/>
    <circle cx="318" cy="129" r="5"/>
    <circle cx="282" cy="177" r="5"/>
    <circle cx="581" cy="145" r="5"/>
    <circle cx="632" cy="224" r="6"/>
  </g>

  <!-- Legend -->
  <g transform="translate(580, 60)">
    <rect width="200" height="170" fill="#0f1721" stroke="#1c2a3a" rx="6"/>
    <text x="10" y="20" fill="#e6eef7" font-family="system-ui" font-size="11" font-weight="600">Module Families</text>
    <circle cx="20" cy="40" r="4" fill="#fbbf24"/><text x="32" y="44" fill="#e6eef7" font-family="system-ui" font-size="10">Tropical</text>
    <circle cx="20" cy="58" r="4" fill="#22d3d3"/><text x="32" y="62" fill="#e6eef7" font-family="system-ui" font-size="10">Differential</text>
    <circle cx="20" cy="76" r="4" fill="#c77dff"/><text x="32" y="80" fill="#e6eef7" font-family="system-ui" font-size="10">ActiveInference</text>
    <circle cx="20" cy="94" r="4" fill="#4ade80"/><text x="32" y="98" fill="#e6eef7" font-family="system-ui" font-size="10">Renormalization</text>
    <circle cx="20" cy="112" r="4" fill="#fb923c"/><text x="32" y="116" fill="#e6eef7" font-family="system-ui" font-size="10">ProgramCalculus</text>
    <circle cx="20" cy="130" r="4" fill="#f472b6"/><text x="32" y="134" fill="#e6eef7" font-family="system-ui" font-size="10">Topos</text>
    <circle cx="20" cy="148" r="4" fill="#5e9cff"/><text x="32" y="152" fill="#e6eef7" font-family="system-ui" font-size="10">Embeddings</text>
  </g>

  <!-- Stats -->
  <text x="120" y="480" fill="#6b7d8c" font-family="system-ui" font-size="10">
    61 declarations | 9 module families | Click to explore
  </text>
</svg>
